<?xml version="1.0" encoding="UTF-8" standalone="no"?>
<svg
   xmlns:dc="http://purl.org/dc/elements/1.1/"
   xmlns:cc="http://creativecommons.org/ns#"
   xmlns:rdf="http://www.w3.org/1999/02/22-rdf-syntax-ns#"
   xmlns:svg="http://www.w3.org/2000/svg"
   xmlns="http://www.w3.org/2000/svg"
   style="font-size:14px;font-family:Roboto;text-anchor:middle;fill:#ffffff;fill-rule:evenodd;stroke:#000000;stroke-linecap:round;stroke-linejoin:round"
   id="svg26"
   version="1.1"
   font-size="14"
   height="600.62872"
   width="852.66217">
  <metadata
     id="metadata30">
    <rdf:RDF>
      <cc:Work
         rdf:about="">
        <dc:format>image/svg+xml</dc:format>
        <dc:type
           rdf:resource="http://purl.org/dc/dcmitype/StillImage" />
      </cc:Work>
    </rdf:RDF>
  </metadata>
  <defs
     id="defs4">
    <style
       id="style2">@import url(&quot;https://fonts.googleapis.com/css?family=Lora&quot;)</style>
  </defs>
  <path
     style="fill:none"
     id="path6"
     d="m 632.66211,5.628746 h 5" />
  <text
     y="-29.871254"
     x="-157.83789"
     style="font-size:128px;font-family:Lora;fill:#000000;stroke:none"
     id="text10"
     font-size="128">
    <tspan
       id="tspan8"
       y="320.62875"
       x="312.66211">Server</tspan>
  </text>
  <text
     y="-29.871254"
     x="-157.83789"
     style="font-size:196px;font-family:Lora;fill:#6599cd;stroke:none"
     id="text14"
     font-size="196">
    <tspan
       id="tspan12"
       y="330.30875"
       x="67.662109">U</tspan>
  </text>
  <path
     style="fill:#6599cd;stroke:#6599cd;stroke-width:12"
     id="path16"
     d="m 528.66211,260.62875 h 170 m -171,30 h 120 m -119,30 h 70" />
  <path
     style="fill:#8cc84b;stroke:none"
     id="path18"
     d="m 814.50396,521.48225 c 1.9127,-1.1354 4.4039,-1.1406 6.3149,0 l 28.84415,16.89679 c 1.808,1.0562 3.0174,3.1429 2.9989,5.3035 v 33.89668 c 0.014,2.24999 -1.3153,4.38669 -3.2228,5.41899 L 820.69776,599.814 c -1.9522,1.1577 -4.4935,1.0685 -6.3848,-0.184 l -8.62379,-5.17139 c -0.5872,-0.363 -1.2489,-0.6519 -1.6635,-1.2423 0.3665,-0.5122 1.0217,-0.5761 1.5541,-0.7997 1.1993,-0.3955 2.3006,-1.0303 3.40229,-1.6463 0.2786,-0.1978 0.6187,-0.122 0.8857,0.055 l 7.3565,4.41089 c 0.5258,0.3148 1.0583,-0.1032 1.5078,-0.36299 l 28.22045,-16.51639 c 0.3484,-0.1738 0.5409,-0.5573 0.5126,-0.9531 v -33.54738 c 0.04,-0.449 -0.2107,-0.8619 -0.6022,-1.0456 l -28.63825,-16.74209 c -0.3386,-0.2414 -0.7855,-0.2421 -1.1248,-0.002 l -28.63838,16.74859 c -0.3901,0.1841 -0.6519,0.5901 -0.6054,1.0408 v 33.54908 c -0.034,0.3955 0.1732,0.771 0.5192,0.9411 l 7.64859,4.47959 c 1.4362,0.8017 3.1997,1.2781 4.7822,0.6638 1.3964,-0.5194 2.3753,-1.9973 2.3487,-3.535 l 0.01,-33.34957 c -0.0348,-0.4935 0.4166,-0.9013 0.8792,-0.8548 l 3.6742,0.003 c 0.5111,-0.012 0.86269,0.5194 0.79959,1.0166 l -0.008,33.56107 c 0.003,2.9814 -1.17779,6.2255 -3.83689,7.6843 -3.2759,1.76 -7.3249,1.3868 -10.5612,-0.3008 -2.80179,-1.4503 -5.47549,-3.1618 -8.22749,-4.7155 -1.9124,-1.0266 -3.2347,-3.1718 -3.2213,-5.42009 v -33.89698 c -0.02,-2.2053 1.2374,-4.33 3.1018,-5.3708 l 28.73978,-16.82949 z m 8.35845,23.4805 c 4.1787,-0.279 8.6521,-0.1653 12.4124,1.9697 2.91139,1.636 4.52539,5.0696 4.57679,8.424 -0.0813,0.4524 -0.5374,0.702 -0.9539,0.671 -1.2124,-0.002 -2.425,0.017 -3.63739,-0.009 -0.5144,0.0205 -0.8133,-0.4712 -0.8778,-0.9428 -0.3484,-1.6049 -1.1924,-3.1945 -2.649,-3.9687 -2.236,-1.161 -4.8286,-1.1026 -7.267,-1.0784 -1.7799,0.098 -3.6939,0.2579 -5.20199,1.3434 -1.1577,0.8223 -1.5094,2.4823 -1.0961,3.8191 0.3894,0.9599 1.4579,1.2696 2.33219,1.5551 5.0357,1.3659 10.3721,1.23 15.3118,3.02759 2.04519,0.7328 4.04579,2.1574 4.74579,4.3781 0.9156,2.9763 0.5143,6.5339 -1.5275,8.9233 -1.6559,1.96619 -4.06739,3.03639 -6.47269,3.61759 -3.1999,0.74 -6.5206,0.7588 -9.77,0.4302 -3.05559,-0.3612 -6.23529,-1.1938 -8.59419,-3.35289 -2.0172,-1.8164 -3.0023,-4.6465 -2.9045,-7.3781 0.0234,-0.4613 0.4662,-0.783 0.8924,-0.7451 l 3.6627,0.002 c 0.4876,-0.0361 0.8491,0.4009 0.8741,0.8776 0.2253,1.5292 0.7795,3.1342 2.0652,4.0408 2.48139,1.6602 5.59499,1.5465 8.43619,1.593 2.3539,-0.1083 4.9963,-0.1411 6.9173,-1.7546 1.0135,-0.9203 1.3137,-2.46 1.0398,-3.7846 -0.2967,-1.1183 -1.4248,-1.6395 -2.3935,-1.9802 -4.9713,-1.6309 -10.3672,-1.0391 -15.29039,-2.8834 -1.9987,-0.7326 -3.9315,-2.11759 -4.6994,-4.24709 -1.0714,-3.0139 -0.5805,-6.7418 1.6754,-9.0506 2.1994,-2.2964 5.3745,-3.1808 8.39329,-3.4974 z" />
  <path
     style="fill:#007acc;stroke:none"
     id="path20"
     d="m 463.79471,527.91095 h -17.12 v 52.848 h -6.9948 v -52.848 h -17.0178 v -6.242 h 41.1326 z m 32.2588,10.6113 -19.5214,48.9985 c -3.445,8.7386 -8.3517,13.108 -14.6156,13.108 -1.775,0 -3.2362,-0.208 -4.3847,-0.52 v -6.0337 c 1.4616,0.52 2.8186,0.728 3.967,0.728 3.445,0 5.9506,-2.0804 7.7255,-6.1377 l 3.3406,-8.0104 -16.4948,-42.1326 h 7.5167 l 11.4835,32.4577 c 0.1046,0.416 0.4176,1.4563 0.8352,3.225 h 0.21 c 0.1044,-0.6242 0.4176,-1.6643 0.8352,-3.1208 l 12.0057,-32.5618 h 7.1 z m 11.066,36.0987 h -0.2088 v 25.4878 h -6.7857 v -61.5864 h 6.7857 v 7.386 h 0.2088 c 3.34,-5.6176 8.2475,-8.4264 14.616,-8.4264 5.4285,0 9.71,1.8726 12.7363,5.6176 3.0263,3.745 4.5935,8.8428 4.5935,15.1886 0,7.074 -1.7748,12.6918 -5.22,16.957 -3.4452,4.2652 -8.143,6.346 -14.0936,6.346 -5.3243,0.208 -9.6045,-2.1848 -12.6322,-6.9702 z m -0.1042,-16.957 v 5.9297 c 0,3.5372 1.1482,6.45 3.445,8.8426 2.2968,2.3926 5.1154,3.6412 8.665,3.6412 4.0714,0 7.308,-1.5605 9.71,-4.6814 2.2968,-3.12 3.4453,-7.4903 3.4453,-13.108 0,-4.6815 -1.044,-8.4265 -3.2365,-11.0274 -2.1922,-2.7048 -5.1154,-3.9532 -8.8737,-3.9532 -3.967,0 -7.1,1.3526 -9.5,4.0573 -2.5057,2.705 -3.654,6.1378 -3.654,10.3 z m 73.6,3.64 h -29.8577 c 0.1044,4.6814 1.3572,8.3225 3.7584,10.9233 2.4012,2.6008 5.7417,3.85 10.0222,3.85 4.802,0 9.1868,-1.5605 13.154,-4.6814 v 6.346 c -3.7583,2.7048 -8.665,4.0573 -14.72,4.0573 -5.9506,0 -10.6485,-1.8726 -14.0936,-5.7218 -3.4451,-3.8492 -5.1155,-9.2588 -5.1155,-16.1248 0,-6.554 1.88,-11.9636 5.6374,-16.02 3.7584,-4.16 8.3518,-6.2418 13.885,-6.2418 5.5332,0 9.8132,1.7686 12.8406,5.4096 3.0277,3.537 4.5937,8.5305 4.5937,14.8764 l -0.1044,3.33 z m -6.9946,-5.7217 c 0,-3.9533 -0.9397,-6.97 -2.82,-9.155 -1.8803,-2.185 -4.5,-3.2248 -7.7252,-3.2248 -3.2252,0 -5.9508,1.1443 -8.1432,3.433 -2.1924,2.2887 -3.6538,5.3058 -4.1758,8.9468 h 22.863 z m 10.3353,23.095 v -4.6815 c 4.2802,2.705 8.5605,4.0573 12.9453,4.0573 4.5935,0 8.143,-0.9364 10.544,-2.913 2.401,-1.9766 3.5495,-4.5773 3.5495,-8.0103 0,-3.017 -0.8352,-5.4098 -2.4013,-7.2823 -1.5658,-1.7685 -5.1154,-4.2652 -10.4396,-7.3862 -6.055,-3.537 -9.8134,-6.45 -11.3794,-8.7386 -1.5658,-2.3928 -2.4,-5.0975 -2.4,-8.1143 0,-4.1614 1.6704,-7.6984 4.9066,-10.6114 3.2362,-2.913 7.62,-4.3693 13.0498,-4.3693 3.5495,0 7.0988,0.6242 10.544,1.7687 v 4.2652 c -3.4453,-1.5605 -7.2034,-2.3926 -11.1705,-2.3926 -4.0717,0 -7.2035,1.0402 -9.6047,3.0168 -2.4,2.0807 -3.5495,4.5774 -3.5495,7.6982 0,3.017 0.8352,5.4096 2.4013,7.1782 1.5661,1.7686 5.1154,4.2652 10.4396,7.2823 5.5332,3.1208 9.187,5.9298 11.0662,8.3224 1.8792,2.3926 2.7143,5.2015 2.7143,8.4265 0,4.5774 -1.566,8.2184 -4.698,11.1314 -3.132,2.913 -7.62,4.2653 -13.3627,4.2653 -2.088,0 -4.3848,-0.312 -7.1,-0.9363 -2.7152,-0.6243 -4.6978,-1.1444 -6.055,-1.9766 z m 66.5,0.208 c -3.132,1.8727 -6.8902,2.913 -11.2747,2.913 -5.742,0 -10.4398,-1.9767 -13.9894,-5.93 -3.5496,-3.9533 -5.3243,-9.0507 -5.3243,-15.5005 0,-6.658 1.9836,-12.1717 5.9507,-16.437 3.9671,-4.2653 9.0825,-6.4498 15.3464,-6.4498 3.2363,0 6.3682,0.6242 9.3956,1.9766 v 4.2652 c -3.0274,-1.8726 -6.368,-2.81 -9.9177,-2.81 -5.01,0 -8.978,1.7685 -12.1,5.3057 -3.122,3.5372 -4.5937,8.2184 -4.5937,13.836 0,5.5136 1.4617,9.883 4.2805,13.212 2.8188,3.329 6.577,4.9935 11.1706,4.9935 4.2802,0 7.934,-1.1444 11.066,-3.33 v 3.953 z m 25.2643,-36.41 c -1.2528,-0.936 -2.7144,-1.3524 -4.5,-1.3524 -3.34,0 -6.1596,1.7685 -8.352,5.2016 -2.2966,3.433 -3.3406,8.3225 -3.3406,14.6685 v 19.8698 h -3.7585 v -42.3406 h 3.7585 v 9.3627 h 0.2088 c 0.9396,-3.2248 2.5054,-5.7217 4.5935,-7.4903 2.0881,-1.7686 4.5,-2.7047 7.3076,-2.7047 1.566,0 3.0277,0.208 4.176,0.7282 v 4.0572 h -0.1043 z m 6.055,-14.5643 c -0.8352,0 -1.566,-0.312 -2.1925,-0.9363 -0.6265,-0.6243 -0.9395,-1.3525 -0.9395,-2.2886 0,-0.9361 0.313,-1.6645 0.9395,-2.1848 0.6265,-0.5203 1.3573,-0.8323 2.1925,-0.8323 0.8352,0 1.5658,0.3122 2.2965,0.8323 0.6264,0.5203 0.9397,1.2484 0.9397,2.1848 0,0.8322 -0.3133,1.6644 -0.9397,2.2886 -0.7307,0.6242 -1.4616,0.9363 -2.2965,0.9363 z m -1.8792,52.848 v -42.2367 h 3.758 v 42.2367 z m 16.808,-7.4904 h -0.2088 v 26.944 h -3.7582 v -61.6904 h 3.7582 v 8.7385 h 0.2088 c 1.566,-3.12 3.654,-5.5136 6.4727,-7.178 2.8187,-1.6644 5.9505,-2.497 9.2913,-2.497 5.4287,0 9.6046,1.8727 12.632,5.5137 3.0276,3.745 4.4892,8.7386 4.4892,15.0845 0,7.0742 -1.7748,12.796 -5.2198,17.1652 -3.445,4.3692 -8.0388,6.554 -13.676,6.554 -6.264,-0.104 -10.9618,-2.913 -13.9893,-8.6347 z m -0.2088,-15.7087 v 5.3055 c 0,4.2655 1.3573,7.9065 3.967,10.9233 2.7144,3.017 6.1594,4.5774 10.544,4.5774 4.2802,0 7.8298,-1.8725 10.544,-5.5136 2.7144,-3.745 4.0714,-8.5306 4.0714,-14.5643 0,-5.3057 -1.2525,-9.4668 -3.758,-12.5877 -2.5055,-3.1209 -5.742,-4.6814 -9.9177,-4.6814 -4.9068,0 -8.7694,1.6643 -11.4838,4.9934 -2.7144,3.3291 -3.967,7.074 -3.967,11.5474 z m 56.1668,22.5749 c -1.9836,0.9362 -3.8628,1.3523 -5.5332,1.3523 -6.2638,0 -9.3956,-3.745 -9.3956,-11.2353 v -28.1926 h -7.62 v -3.433 h 7.62 v -11.0274 l 1.8792,-0.6242 1.88,-0.6242 v 12.2757 h 11.1696 v 3.433 h -11.1706 v 27.8804 c 0,2.913 0.4176,4.9936 1.3572,6.346 0.9396,1.3524 2.5056,1.9766 4.6978,1.9766 1.566,0 3.2364,-0.52 5.1156,-1.5604 v 3.433 z" />
  <text
     y="-29.871254"
     x="-157.83789"
     style="font-size:48px;font-family:Lora;fill:#000000;stroke:none"
     id="text24"
     font-size="48">
    <tspan
       id="tspan22"
       y="36.46875"
       x="357.66211">Fast ◆ Powerful ◆ Secure</tspan>
  </text>
</svg>
